<svg xmlns="http://www.w3.org/2000/svg" viewBox="0 0 32 32"><g fill="none" fill-rule="evenodd"><circle cx="16" cy="16" r="16" fill="#E84142"/><path fill="#FFF" fill-rule="nonzero" d="M19.917 7.583a1.94 1.94 0 0 1 1.69.974l4.143 7.176a1.94 1.94 0 0 1 0 1.94l-4.143 7.176a1.94 1.94 0 0 1-1.69.974h-1.847c-.346 0-.554-.36-.392-.668l5.043-9.453-5.043-9.453c-.162-.308.046-.667.392-.667h1.847Zm-3.917 8.667 2.083 3.625H9.917l2.083-3.625L14 12.833l2 3.417Zm-2.583-7.083 2.583 4.5h-5.166l2.583-4.5Z"/></g></svg>
