<svg xmlns="http://www.w3.org/2000/svg" viewBox="0 0 32 32"><g fill="none" fill-rule="evenodd"><circle cx="16" cy="16" r="16" fill="#8247E5"/><path fill="#FFF" fill-rule="nonzero" d="M21.092 12.693c-.369-.215-.848-.215-1.254 0l-2.879 1.654-1.955 1.075-2.879 1.653c-.369.216-.848.216-1.254 0l-2.288-1.294a1.27 1.27 0 0 1-.627-1.075v-2.547c0-.43.221-.825.627-1.075l2.252-1.255c.369-.215.848-.215 1.254 0l2.252 1.255c.369.216.628.61.628 1.075v1.654l1.954-1.111v-1.654a1.27 1.27 0 0 0-.626-1.075l-4.17-2.371c-.369-.215-.848-.215-1.254 0l-4.244 2.371A1.27 1.27 0 0 0 6 11.043v4.776c0 .43.221.825.627 1.075l4.244 2.37c.369.216.848.216 1.254 0l2.879-1.617 1.955-1.111 2.879-1.617c.369-.216.848-.216 1.254 0l2.252 1.255c.369.215.628.61.628 1.075v2.547c0 .43-.222.824-.628 1.075l-2.252 1.291c-.369.215-.848.215-1.254 0l-2.252-1.255c-.369-.215-.628-.61-.628-1.075v-1.654l-1.954 1.112v1.654c0 .43.221.825.627 1.075l4.244 2.37c.369.216.848.216 1.254 0l4.244-2.37c.369-.215.628-.61.628-1.075v-4.776c0-.43-.222-.825-.628-1.075l-4.281-2.371Z"/></g></svg>
