<svg xmlns="http://www.w3.org/2000/svg" viewBox="0 0 32 32">
  <circle cx="16" cy="16" r="16" fill="#4BA2FF"/>
  <path
    fill="#fff"
    d="M21.5 14a4.36 4.36 0 0 1 .92 2.69 4.38 4.38 0 0 1-.95 2.72l-.05.06-.01-.08a4 4 0 0 0-.04-.21c-.3-1.32-1.26-2.46-2.84-3.38-1.07-.62-1.68-1.36-1.84-2.2a3.3 3.3 0 0 1 .13-1.57c.12-.4.31-.77.56-1.1l.62-.77a.27.27 0 0 1 .41 0l.77.96Zm.97-.77-4.63-5.78a.19.19 0 0 0-.3 0l-4.16 5.19-.01.01a5.7 5.7 0 0 0-1.22 3.52c0 3.1 2.47 5.62 5.52 5.62s5.5-2.52 5.5-5.62a5.7 5.7 0 0 0-1.22-3.52Zm-7.57.75.37-.46.01.08.03.2c.24 1.28 1.09 2.35 2.52 3.18 1.24.72 1.96 1.55 2.17 2.46.08.38.1.75.06 1.08v.02l-.02.01c-.58.29-1.21.44-1.85.44-2.33 0-4.22-1.93-4.22-4.31 0-1.02.35-1.96.93-2.7Z"
  />
</svg>
